<?xml version="1.0" standalone="no"?><!-- Generator: Gravit.io --><svg xmlns="http://www.w3.org/2000/svg" xmlns:xlink="http://www.w3.org/1999/xlink" style="isolation:isolate" viewBox="210.477 892.592 65.872 45.471" width="65.872" height="45.471"><path d=" M 275.525 898.007 L 273.328 898.007 L 273.328 893.436 C 273.328 892.965 272.955 892.592 272.485 892.592 L 250.769 892.592 C 247.552 892.592 244.747 894.476 243.413 897.183 C 242.079 894.476 239.294 892.592 236.057 892.592 L 214.361 892.592 C 213.891 892.592 213.518 892.965 213.518 893.436 L 213.518 898.007 L 211.321 898.007 C 210.85 898.007 210.477 898.379 210.477 898.85 L 210.477 937.22 C 210.477 937.691 210.85 938.063 211.321 938.063 L 275.506 938.063 C 275.976 938.063 276.349 937.691 276.349 937.22 L 276.349 898.85 C 276.369 898.379 275.996 898.007 275.525 898.007 L 275.525 898.007 Z  M 244.276 900.792 C 244.276 897.202 247.199 894.299 250.769 894.299 L 271.622 894.299 L 271.622 933.355 L 244.276 933.355 L 244.276 900.792 Z  M 215.224 894.299 L 236.077 894.299 C 239.666 894.299 242.57 897.222 242.57 900.792 L 242.57 933.355 L 215.224 933.355 L 215.224 894.299 Z  M 212.164 899.713 L 213.498 899.713 L 213.498 934.238 C 213.498 934.336 213.518 934.415 213.557 934.513 C 213.557 934.532 213.577 934.552 213.577 934.591 C 213.577 934.611 213.596 934.63 213.596 934.65 L 214.577 936.396 L 212.145 936.396 L 212.164 899.713 L 212.164 899.713 Z  M 215.813 935.062 L 242.57 935.062 L 242.57 936.376 L 216.558 936.376 L 215.813 935.062 L 215.813 935.062 Z  M 244.276 936.376 L 244.276 935.062 L 271.033 935.062 L 270.307 936.376 L 244.276 936.376 Z  M 274.682 936.376 L 272.249 936.376 L 273.23 934.63 C 273.25 934.611 273.25 934.591 273.25 934.572 C 273.269 934.552 273.269 934.532 273.269 934.513 C 273.309 934.415 273.328 934.336 273.328 934.238 L 273.328 899.713 L 274.662 899.713 L 274.662 936.376 L 274.682 936.376 L 274.682 936.376 Z  M 237.901 901.047 L 219.736 901.047 C 219.52 901.047 219.324 901.224 219.324 901.459 C 219.324 901.675 219.501 901.871 219.736 901.871 L 237.901 901.871 C 238.117 901.871 238.313 901.694 238.313 901.459 C 238.293 901.224 238.117 901.047 237.901 901.047 Z  M 237.901 905.755 L 219.736 905.755 C 219.52 905.755 219.324 905.932 219.324 906.167 C 219.324 906.383 219.501 906.579 219.736 906.579 L 237.901 906.579 C 238.117 906.579 238.313 906.402 238.313 906.167 C 238.293 905.932 238.117 905.755 237.901 905.755 Z  M 237.901 910.483 L 219.736 910.483 C 219.52 910.483 219.324 910.659 219.324 910.895 C 219.324 911.11 219.501 911.306 219.736 911.306 L 237.901 911.306 C 238.117 911.306 238.313 911.13 238.313 910.895 C 238.293 910.659 238.117 910.483 237.901 910.483 Z  M 237.901 929.334 L 219.736 929.334 C 219.52 929.334 219.324 929.51 219.324 929.746 C 219.324 929.962 219.501 930.158 219.736 930.158 L 237.901 930.158 C 238.117 930.158 238.313 929.981 238.313 929.746 C 238.293 929.51 238.117 929.334 237.901 929.334 Z  M 219.717 915.995 L 231.82 915.995 C 232.036 915.995 232.232 915.818 232.232 915.583 C 232.232 915.347 232.055 915.171 231.82 915.171 L 219.717 915.171 C 219.501 915.171 219.305 915.347 219.305 915.583 C 219.305 915.818 219.501 915.995 219.717 915.995 Z  M 219.717 920.722 L 231.82 920.722 C 232.036 920.722 232.232 920.546 232.232 920.31 C 232.232 920.095 232.055 919.898 231.82 919.898 L 219.717 919.898 C 219.501 919.898 219.305 920.075 219.305 920.31 C 219.324 920.526 219.501 920.722 219.717 920.722 Z  M 219.717 925.43 L 231.82 925.43 C 232.036 925.43 232.232 925.254 232.232 925.018 C 232.232 924.803 232.055 924.606 231.82 924.606 L 219.717 924.606 C 219.501 924.606 219.305 924.783 219.305 925.018 C 219.324 925.254 219.501 925.43 219.717 925.43 Z  M 267.639 910.483 L 249.475 910.483 C 249.259 910.483 249.063 910.659 249.063 910.895 C 249.063 911.11 249.239 911.306 249.475 911.306 L 267.639 911.306 C 267.855 911.306 268.051 911.13 268.051 910.895 C 268.051 910.659 267.875 910.483 267.639 910.483 Z  M 267.639 929.334 L 249.475 929.334 C 249.259 929.334 249.063 929.51 249.063 929.746 C 249.063 929.962 249.239 930.158 249.475 930.158 L 267.639 930.158 C 267.855 930.158 268.051 929.981 268.051 929.746 C 268.051 929.51 267.875 929.334 267.639 929.334 Z  M 267.639 915.191 L 255.536 915.191 C 255.32 915.191 255.124 915.367 255.124 915.602 C 255.124 915.838 255.301 916.014 255.536 916.014 L 267.639 916.014 C 267.855 916.014 268.051 915.838 268.051 915.602 C 268.051 915.367 267.875 915.191 267.639 915.191 Z  M 267.639 919.898 L 255.536 919.898 C 255.32 919.898 255.124 920.075 255.124 920.31 C 255.124 920.526 255.301 920.722 255.536 920.722 L 267.639 920.722 C 267.855 920.722 268.051 920.546 268.051 920.31 C 268.051 920.095 267.875 919.898 267.639 919.898 Z  M 267.639 924.626 L 255.536 924.626 C 255.32 924.626 255.124 924.803 255.124 925.038 C 255.124 925.254 255.301 925.45 255.536 925.45 L 267.639 925.45 C 267.855 925.45 268.051 925.273 268.051 925.038 C 268.051 924.803 267.875 924.626 267.639 924.626 Z  M 267.639 900.517 L 249.475 900.517 C 249.259 900.517 249.063 900.694 249.063 900.929 L 249.063 909.129 C 249.063 909.345 249.239 909.541 249.475 909.541 L 267.639 909.541 C 267.855 909.541 268.051 909.364 268.051 909.129 L 268.051 900.929 C 268.051 900.714 267.875 900.517 267.639 900.517 Z  M 267.247 908.717 L 249.887 908.717 L 249.887 901.341 L 267.247 901.341 L 267.247 908.717 Z " fill="rgb(235,75,45)"/></svg>