<?xml version="1.0" standalone="no"?><!-- Generator: Gravit.io --><svg xmlns="http://www.w3.org/2000/svg" xmlns:xlink="http://www.w3.org/1999/xlink" style="isolation:isolate" viewBox="802.5 892.012 74.5 46.631" width="74.5" height="46.631"><path d=" M 802.5 929.105 L 808.761 929.105 C 809.977 926.377 812.725 924.454 815.905 924.454 C 819.084 924.454 821.832 926.358 823.048 929.105 L 850.073 929.105 L 850.073 892.012 L 802.5 892.012 L 802.5 929.105 Z  M 842.89 897.625 L 844.382 897.625 L 844.382 923.492 L 842.91 923.492 L 842.89 897.625 L 842.89 897.625 Z  M 834.215 897.625 L 835.687 897.625 L 835.687 923.492 L 834.215 923.492 L 834.215 897.625 L 834.215 897.625 Z  M 825.56 897.625 L 827.052 897.625 L 827.052 923.492 L 825.58 923.492 L 825.58 897.625 L 825.56 897.625 L 825.56 897.625 Z  M 816.886 897.625 L 818.377 897.625 L 818.377 923.492 L 816.905 923.492 L 816.905 897.625 L 816.886 897.625 L 816.886 897.625 Z  M 808.211 897.625 L 809.703 897.625 L 809.703 923.492 L 808.231 923.492 L 808.231 897.625 L 808.211 897.625 L 808.211 897.625 Z  M 875.842 918.527 C 875.273 917.663 873.919 916.898 872.957 916.898 C 871.465 916.898 869.66 915.838 868.816 914.464 L 864.989 908.204 C 864.42 907.281 862.987 906.477 861.908 906.477 L 856.216 906.477 C 855.273 906.477 854.509 907.241 854.509 908.184 L 854.509 927.417 C 854.509 928.359 855.274 929.125 856.216 929.125 L 856.805 929.125 C 858.062 926.303 860.859 924.482 863.949 924.474 C 867.128 924.474 869.876 926.377 871.093 929.125 L 875.293 929.125 C 876.235 929.125 877 928.359 877 927.417 L 877 922.55 C 877 921.314 876.47 919.489 875.842 918.527 L 875.842 918.527 Z  M 866.873 915.779 C 866.746 916.007 866.506 916.15 866.245 916.152 L 857.178 916.152 C 856.98 916.152 856.79 916.074 856.65 915.934 C 856.511 915.794 856.432 915.604 856.432 915.406 L 856.432 908.596 C 856.432 908.184 856.766 907.85 857.178 907.85 L 862.398 907.85 C 862.673 907.85 862.909 907.988 863.046 908.223 L 866.893 915.033 C 866.991 915.269 866.991 915.563 866.873 915.779 L 866.873 915.779 Z  M 821.773 929.831 C 821.675 929.576 821.537 929.341 821.4 929.105 C 820.301 927.202 818.26 925.926 815.905 925.926 C 813.549 925.926 811.508 927.202 810.409 929.105 C 810.272 929.341 810.154 929.596 810.036 929.831 C 809.938 930.067 809.86 930.322 809.781 930.577 C 809.624 931.127 809.546 931.696 809.546 932.285 C 809.547 934.858 811.1 937.177 813.479 938.159 C 815.858 939.14 818.594 938.591 820.41 936.768 C 822.226 934.945 822.764 932.206 821.773 929.831 L 821.773 929.831 Z  M 815.905 935.386 C 814.197 935.386 812.804 933.992 812.804 932.285 C 812.804 931.657 813 931.068 813.314 930.577 C 813.51 930.302 813.746 930.047 814.001 929.831 C 814.531 929.419 815.178 929.164 815.885 929.164 C 816.591 929.164 817.259 929.419 817.769 929.831 C 818.044 930.047 818.279 930.283 818.456 930.577 C 818.77 931.068 818.966 931.657 818.966 932.285 C 819.005 933.992 817.612 935.386 815.905 935.386 L 815.905 935.386 Z  M 815.905 930.656 C 815.002 930.656 814.276 931.382 814.276 932.285 C 814.276 933.187 815.002 933.914 815.905 933.914 C 816.807 933.914 817.533 933.187 817.533 932.285 C 817.533 931.382 816.807 930.656 815.905 930.656 Z  M 869.817 929.831 C 869.719 929.576 869.581 929.341 869.444 929.105 C 868.345 927.202 866.304 925.926 863.949 925.926 C 861.613 925.926 859.553 927.202 858.454 929.105 C 858.316 929.341 858.198 929.596 858.081 929.831 C 857.982 930.067 857.904 930.322 857.825 930.577 C 857.668 931.127 857.59 931.696 857.59 932.285 C 857.59 935.778 860.436 938.643 863.949 938.643 C 867.442 938.643 870.308 935.798 870.308 932.285 C 870.308 931.696 870.229 931.127 870.072 930.577 C 869.994 930.322 869.915 930.087 869.817 929.831 Z  M 863.949 935.386 C 862.241 935.386 860.848 933.992 860.848 932.285 C 860.848 931.657 861.044 931.068 861.358 930.577 C 861.554 930.302 861.79 930.047 862.045 929.831 C 862.575 929.419 863.223 929.164 863.929 929.164 C 864.636 929.164 865.303 929.419 865.813 929.831 C 866.088 930.047 866.323 930.283 866.5 930.577 C 866.814 931.068 867.01 931.657 867.01 932.285 C 867.05 933.992 865.656 935.386 863.949 935.386 L 863.949 935.386 Z  M 863.949 930.656 C 863.046 930.656 862.32 931.382 862.32 932.285 C 862.32 933.187 863.046 933.914 863.949 933.914 C 864.852 933.914 865.578 933.187 865.578 932.285 C 865.578 931.382 864.852 930.656 863.949 930.656 Z " fill="rgb(65,190,235)"/></svg>