<?xml version="1.0" standalone="no"?><!-- Generator: Gravit.io --><svg xmlns="http://www.w3.org/2000/svg" xmlns:xlink="http://www.w3.org/1999/xlink" style="isolation:isolate" viewBox="524.192 890.878 32.667 47.185" width="32.667" height="47.185"><path d=" M 529.128 890.878 C 526.242 890.878 524.192 893.473 524.192 896.323 L 524.192 932.619 C 524.192 935.468 526.246 938.063 529.128 938.063 L 551.922 938.063 C 554.804 938.063 556.858 935.468 556.858 932.619 L 556.858 896.323 C 556.858 893.473 554.804 890.878 551.922 890.878 L 529.128 890.878 Z  M 529.128 894.508 L 551.922 894.508 C 552.492 894.508 553.229 895.176 553.229 896.323 L 553.229 932.619 C 553.229 933.766 552.492 934.434 551.922 934.434 L 529.128 934.434 C 528.558 934.434 527.821 933.766 527.821 932.619 L 527.821 896.323 C 527.821 895.176 528.558 894.508 529.128 894.508 Z  M 531.451 901.767 L 531.451 905.397 L 549.599 905.397 L 549.599 901.767 L 531.451 901.767 Z  M 531.451 909.026 L 531.451 912.656 L 542.34 912.656 L 542.34 909.026 L 531.451 909.026 Z  M 531.451 916.286 L 531.451 919.915 L 549.599 919.915 L 549.599 916.286 L 531.451 916.286 Z  M 540.525 927.174 C 539.523 927.174 538.71 927.987 538.71 928.989 C 538.71 929.991 539.523 930.804 540.525 930.804 C 541.527 930.804 542.34 929.991 542.34 928.989 C 542.34 927.987 541.527 927.174 540.525 927.174 Z " fill="rgb(255,190,40)"/></svg>