<svg xmlns="http://www.w3.org/2000/svg" style="isolation:isolate" viewBox="210.477 892.592 65.872 45.471" width="65.872" height="45.471"><path d="M275.525 898.007h-2.197v-4.571a.838.838 0 0 0-.843-.844h-21.716c-3.217 0-6.022 1.884-7.356 4.591-1.334-2.707-4.119-4.591-7.356-4.591h-21.696a.838.838 0 0 0-.843.844v4.571h-2.197a.837.837 0 0 0-.844.843v38.37c0 .471.373.843.844.843h64.185c.47 0 .843-.372.843-.843v-38.37a.808.808 0 0 0-.824-.843zm-31.249 2.785c0-3.59 2.923-6.493 6.493-6.493h20.853v39.056h-27.346v-32.563zm-29.052-6.493h20.853c3.589 0 6.493 2.923 6.493 6.493v32.563h-27.346v-39.056zm-3.06 5.414h1.334v34.525c0 .098.02.177.059.275 0 .019.02.039.02.078 0 .02.019.039.019.059l.981 1.746h-2.432l.019-36.683zm3.649 35.349h26.757v1.314h-26.012l-.745-1.314zm28.463 1.314v-1.314h26.757l-.726 1.314h-26.031zm30.406 0h-2.433l.981-1.746c.02-.019.02-.039.02-.058.019-.02.019-.04.019-.059a.681.681 0 0 0 .059-.275v-34.525h1.334v36.663h.02zm-36.781-35.329h-18.165a.415.415 0 0 0-.412.412c0 .216.177.412.412.412h18.165a.415.415 0 0 0 .412-.412c-.02-.235-.196-.412-.412-.412zm0 4.708h-18.165a.415.415 0 0 0-.412.412c0 .216.177.412.412.412h18.165a.415.415 0 0 0 .412-.412c-.02-.235-.196-.412-.412-.412zm0 4.728h-18.165a.414.414 0 0 0-.412.412c0 .215.177.411.412.411h18.165a.414.414 0 0 0 .412-.411c-.02-.236-.196-.412-.412-.412zm0 18.851h-18.165a.414.414 0 0 0-.412.412c0 .216.177.412.412.412h18.165a.415.415 0 0 0 .412-.412c-.02-.236-.196-.412-.412-.412zm-18.184-13.339h12.103a.415.415 0 0 0 .412-.412.402.402 0 0 0-.412-.412h-12.103a.414.414 0 0 0-.412.412c0 .235.196.412.412.412zm0 4.727h12.103a.414.414 0 0 0 .412-.412.415.415 0 0 0-.412-.412h-12.103a.415.415 0 0 0-.412.412c.019.216.196.412.412.412zm0 4.708h12.103a.414.414 0 0 0 .412-.412.415.415 0 0 0-.412-.412h-12.103a.415.415 0 0 0-.412.412c.019.236.196.412.412.412zm47.922-14.947h-18.164a.414.414 0 0 0-.412.412c0 .215.176.411.412.411h18.164a.414.414 0 0 0 .412-.411.402.402 0 0 0-.412-.412zm0 18.851h-18.164a.414.414 0 0 0-.412.412c0 .216.176.412.412.412h18.164a.415.415 0 0 0 .412-.412.402.402 0 0 0-.412-.412zm0-14.143h-12.103a.414.414 0 0 0-.412.411c0 .236.177.412.412.412h12.103a.414.414 0 0 0 .412-.412.401.401 0 0 0-.412-.411zm0 4.707h-12.103a.415.415 0 0 0-.412.412c0 .216.177.412.412.412h12.103a.414.414 0 0 0 .412-.412.415.415 0 0 0-.412-.412zm0 4.728h-12.103a.415.415 0 0 0-.412.412c0 .216.177.412.412.412h12.103a.415.415 0 0 0 .412-.412.402.402 0 0 0-.412-.412zm0-24.109h-18.164a.415.415 0 0 0-.412.412v8.2c0 .216.176.412.412.412h18.164a.415.415 0 0 0 .412-.412v-8.2a.415.415 0 0 0-.412-.412zm-.392 8.2h-17.36v-7.376h17.36v7.376z" fill="#EB4B2D"/></svg>