<svg xmlns="http://www.w3.org/2000/svg" style="isolation:isolate" viewBox="802.5 892.012 74.5 46.631" width="74.5" height="46.631"><path d="M802.5 929.105h6.261c1.216-2.728 3.964-4.651 7.144-4.651a7.811 7.811 0 0 1 7.143 4.651h27.025v-37.093H802.5v37.093zm40.39-31.48h1.492v25.867h-1.472l-.02-25.867zm-8.675 0h1.472v25.867h-1.472v-25.867zm-8.655 0h1.492v25.867h-1.472v-25.867h-.02zm-8.674 0h1.491v25.867h-1.472v-25.867h-.019zm-8.675 0h1.492v25.867h-1.472v-25.867h-.02zm67.631 20.902c-.569-.864-1.923-1.629-2.885-1.629-1.492 0-3.297-1.06-4.141-2.434l-3.827-6.26c-.569-.923-2.002-1.727-3.081-1.727h-5.692c-.943 0-1.707.764-1.707 1.707v19.233c0 .942.765 1.708 1.707 1.708h.589a7.842 7.842 0 0 1 7.144-4.651 7.812 7.812 0 0 1 7.144 4.651h4.2c.942 0 1.707-.766 1.707-1.708v-4.867c0-1.236-.53-3.061-1.158-4.023zm-8.969-2.748a.726.726 0 0 1-.628.373h-9.067a.746.746 0 0 1-.746-.746v-6.81c0-.412.334-.746.746-.746h5.22c.275 0 .511.138.648.373l3.847 6.81c.098.236.098.53-.02.746zm-45.1 14.052c-.098-.255-.236-.49-.373-.726a6.327 6.327 0 0 0-5.495-3.179 6.328 6.328 0 0 0-5.496 3.179c-.137.236-.255.491-.373.726-.098.236-.176.491-.255.746a6.358 6.358 0 1 0 11.992-.746zm-5.868 5.555a3.108 3.108 0 0 1-3.101-3.101c0-.628.196-1.217.51-1.708.196-.275.432-.53.687-.746a3.06 3.06 0 0 1 1.884-.667c.706 0 1.374.255 1.884.667.275.216.51.452.687.746.314.491.51 1.08.51 1.708.039 1.707-1.354 3.101-3.061 3.101zm0-4.73c-.903 0-1.629.726-1.629 1.629 0 .902.726 1.629 1.629 1.629.902 0 1.628-.727 1.628-1.629 0-.903-.726-1.629-1.628-1.629zm53.912-.825c-.098-.255-.236-.49-.373-.726a6.327 6.327 0 0 0-5.495-3.179 6.35 6.35 0 0 0-5.495 3.179c-.138.236-.256.491-.373.726-.099.236-.177.491-.256.746a6.19 6.19 0 0 0-.235 1.708c0 3.493 2.846 6.358 6.359 6.358 3.493 0 6.359-2.845 6.359-6.358a6.19 6.19 0 0 0-.236-1.708 11.14 11.14 0 0 0-.255-.746zm-5.868 5.555a3.108 3.108 0 0 1-3.101-3.101c0-.628.196-1.217.51-1.708.196-.275.432-.53.687-.746a3.061 3.061 0 0 1 1.884-.667c.707 0 1.374.255 1.884.667.275.216.51.452.687.746.314.491.51 1.08.51 1.708.04 1.707-1.354 3.101-3.061 3.101zm0-4.73c-.903 0-1.629.726-1.629 1.629 0 .902.726 1.629 1.629 1.629s1.629-.727 1.629-1.629c0-.903-.726-1.629-1.629-1.629z" fill="#41BEEB"/></svg>