<svg xmlns="http://www.w3.org/2000/svg" style="isolation:isolate" viewBox="524.192 890.878 32.667 47.185" width="32.667" height="47.185"><path d="M529.128 890.878c-2.886 0-4.936 2.595-4.936 5.445v36.296c0 2.849 2.054 5.444 4.936 5.444h22.794c2.882 0 4.936-2.595 4.936-5.444v-36.296c0-2.85-2.054-5.445-4.936-5.445h-22.794zm0 3.63h22.794c.57 0 1.307.668 1.307 1.815v36.296c0 1.147-.737 1.815-1.307 1.815h-22.794c-.57 0-1.307-.668-1.307-1.815v-36.296c0-1.147.737-1.815 1.307-1.815zm2.323 7.259v3.63h18.148v-3.63h-18.148zm0 7.259v3.63h10.889v-3.63h-10.889zm0 7.26v3.629h18.148v-3.629h-18.148zm9.074 10.888a1.816 1.816 0 1 0 .001 3.631 1.816 1.816 0 0 0-.001-3.631z" fill="#FFBE28"/></svg>